<svg width="347" height="425" viewBox="0 0 347 425" fill="none" xmlns="http://www.w3.org/2000/svg">
<path fill-rule="evenodd" clip-rule="evenodd" d="M100 10C100 4.47715 95.5228 0 90 0H10C4.47715 0 0 4.47716 0 10V290C0 295.523 4.47716 300 10 300H90C95.5228 300 100 295.523 100 290V197.853C100 188.944 110.771 184.482 117.071 190.782L202.347 276.058C206.252 279.963 206.252 286.294 202.347 290.2L85.3177 407.229C79.018 413.529 83.4797 424.3 92.3888 424.3H205.526C208.178 424.3 210.722 423.246 212.597 421.371L280.127 353.841C280.128 353.84 280.129 353.84 280.13 353.841V353.841C280.131 353.842 280.133 353.842 280.134 353.841L343.772 290.203C347.677 286.298 347.677 279.966 343.772 276.061L216.203 148.492C212.298 144.587 212.298 138.256 216.203 134.35L333.482 17.0711C339.782 10.7714 335.32 0 326.411 0H213.274C210.622 0 208.078 1.05357 206.203 2.92893L117.071 92.061C110.771 98.3606 100 93.899 100 84.9899V10Z" fill="#1BC100"/>
</svg>
